# xmcd CD database file
#
# Track frame offsets:
#	150
#	21410
#	34756
#	50638
#	70155
#	89449
#	107290
#	119197
#	128834
#	151523
#	163181
#	178064
#	190889
#
# Disc length: 2686 seconds
#
# Revision: 0
# Processed by: cddbd v1.5.2PL0 Copyright (c) Steve Scherf et al.
# Submitted via: CDex 1.51
#
DISCID=b00a7c0d
DTITLE=Canteen Knockout  - Navajo Steel
DYEAR=2006
DGENRE=Blues
TTITLE0=Back to the Country
TTITLE1=Dad Song
TTITLE2=Bill Cody
TTITLE3=Mexico
TTITLE4=Gerogia
TTITLE5=Home
TTITLE6=Navajo Steel
TTITLE7=The Drink
TTITLE8=Overnight Girl
TTITLE9=We Work
TTITLE10=Balls out Trucking
TTITLE11=Winter Blues
TTITLE12=Time on my Hands
EXTD=YEAR: 2006
EXTT0=
EXTT1=
EXTT2=
EXTT3=
EXTT4=
EXTT5=
EXTT6=
EXTT7=
EXTT8=
EXTT9=
EXTT10=
EXTT11=
EXTT12=
PLAYORDER=
